.
 
http://www.scenetime.com    -   SceneTime [ We been having it ] !!!


How come you press harder on a remote control when you know the battery is dead? so you better seed to get speed ;)

        Seed back for speed


...................................NFO:.................................................[img]http://img856.imageshack.us/img856/9609/agen.jpg[/img]

[color=blue][size=5][b]Age.Of.Heroes.2011.BDRip.XVID.AC3.HQ.Hive-CM8[/b][/size][/color]


[b]Thx Hive


CM8 Doing It Right The First Time :D


Source Bluray

Video: 720x304 @bitrate 1800 2pass
Audio: English DTS to AC3 5.1 @448
Sample: yes included[/b]


[url]http://www.imdb.com/title/tt1590950/[/url]


General
Complete name                    : Age.Of.Heroes.2011.BDRip.XVID.AC3.HQ.Hive-CM8.avi
Format                           : AVI
Format/Info                      : Audio Video Interleave
File size                        : 1.48 GiB
Duration                         : 1h 33mn
Overall bit rate                 : 2 257 Kbps
Writing application              : Nandub v1.0rc2
Writing library                  : Nandub build 1853/release

Video
ID                               : 0
Format                           : MPEG-4 Visual
Format profile                   : Advanced Simple@L5
Format settings, BVOP            : 1
Format settings, QPel            : Yes
Format settings, GMC             : No warppoints
Format settings, Matrix          : Default (H.263)
Muxing mode                      : Packed bitstream
Codec ID                         : XVID
Codec ID/Hint                    : XviD
Duration                         : 1h 33mn
Bit rate                         : 1 800 Kbps
Width                            : 720 pixels
Height                           : 304 pixels
Display aspect ratio             : 2.35:1
Frame rate                       : 24.000 fps
Color space                      : YUV
Chroma subsampling               : 4:2:0
Bit depth                        : 8 bits
Scan type                        : Progressive
Compression mode                 : Lossy
Bits/(Pixel*Frame)               : 0.343
Stream size                      : 1.18 GiB (80%)
Writing library                  : XviD 1.2.1 (UTC 2008-12-04)

Audio
ID                               : 1
Format                           : AC-3
Format/Info                      : Audio Coding 3
Mode extension                   : CM (complete main)
Codec ID                         : 2000
Duration                         : 1h 33mn
Bit rate mode                    : Constant
Bit rate                         : 448 Kbps
Channel(s)                       : 6 channels
Channel positions                : Front: L C R, Side: L R, LFE
Sampling rate                    : 48.0 KHz
Bit depth                        : 16 bits
Compression mode                 : Lossy
Stream size                      : 300 MiB (20%)
Alignment                        : Split accross interleaves
Interleave, duration             : 42 ms (1.00 video frame)
Interleave, preload duration     : 500 ms


Sean Bean	 ... 	Jones
Izabella Miko	... 	Jensen
Danny Dyer	... 	Rains
James D'Arcy	... 	Ian Fleming
Sebastian Street ... 	Colonel Archer


The true story of the formation of Ian Fleming's 30 Commando unit, 
a precursor for the elite forces in the U.K. 


[img]http://img21.imageshack.us/img21/182/32550044.png[/img]
[img]http://img854.imageshack.us/img854/6966/agag.png[/img]
[img]http://img94.imageshack.us/img94/3488/agagagb.png[/img]
[img]http://img705.imageshack.us/img705/286/agagagag.png[/img]
[img]http://img709.imageshack.us/img709/4333/agagagagaagg.png[/img]
[img]http://img3.imageshack.us/img3/4449/agagagagag.png[/img]
[img]http://img192.imageshack.us/img192/6928/agagagagagaagg.png[/img]


cover + label:

[img]http://img850.imageshack.us/img850/2699/ageofheroes2011cdcover5.jpg[/img]

[img]http://img687.imageshack.us/img687/4233/ageofheroes2011moviecov.jpg[/img]




Greetz

ViSiON,SANTi,MAGNET,THC,T0XiC,iNK,LKRG,IMAGiNE,WBZ,FLAWL3SS,NOVA
D2U,Vik,OneTwo,Rapeseed,SAFC,goldadvance,MEMORY100,KaN1vE,Unevano,Pinnz,Wayne,Mr Hive
and all P2P groups 
Great Work Guys :D

FYS

CM8@hushmail.com